<?xml version="1.0" standalone="no"?>
<!DOCTYPE svg PUBLIC "-//W3C//DTD SVG 20010904//EN"
 "http://www.w3.org/TR/2001/REC-SVG-20010904/DTD/svg10.dtd">
<svg version="1.0" xmlns="http://www.w3.org/2000/svg"
 width="512.000000pt" height="512.000000pt" viewBox="0 0 512.000000 512.000000"
 preserveAspectRatio="xMidYMid meet">
<metadata>
Created by potrace 1.14, written by Peter Selinger 2001-2017
</metadata>
<g transform="translate(0.000000,512.000000) scale(0.100000,-0.100000)"
fill="#000000" stroke="none">
<path d="M4538 3826 c-46 -17 -78 -37 -126 -80 -38 -35 -34 -34 -317 -81 -16
-3 -43 -7 -60 -10 -16 -3 -41 -7 -55 -10 -14 -3 -41 -8 -60 -11 -57 -9 -81
-13 -380 -64 -157 -27 -304 -51 -327 -55 -23 -3 -73 -12 -112 -19 l-69 -13
-46 29 c-25 16 -76 40 -113 53 -111 38 -287 28 -438 -25 -33 -12 -68 -24 -77
-27 -10 -3 -18 -8 -18 -12 0 -3 102 -107 226 -231 125 -124 232 -238 239 -254
26 -60 -31 -127 -94 -111 -16 4 -122 102 -276 256 l-250 249 -99 -69 c-54 -39
-100 -72 -103 -75 -3 -2 104 -113 237 -246 214 -214 243 -246 247 -279 4 -30
0 -43 -18 -64 -23 -25 -41 -31 -82 -28 -11 0 -134 116 -274 256 -140 140 -258
255 -262 255 -4 0 -16 -7 -26 -15 -51 -40 -160 -115 -167 -115 -5 0 -8 -4 -8
-8 0 -5 113 -121 250 -259 229 -230 250 -254 250 -285 0 -56 -57 -100 -108
-83 -11 3 -137 122 -280 265 l-259 259 -34 -25 c-19 -14 -56 -37 -84 -51 l-49
-26 -311 -2 c-170 -1 -319 -5 -330 -8 -11 -3 -37 -8 -58 -12 -138 -20 -294
-78 -392 -145 -87 -60 -159 -155 -197 -261 -22 -60 -23 -78 -23 -319 0 -254 0
-255 26 -311 75 -159 383 -353 682 -430 192 -49 146 -48 2142 -46 1733 2 1874
4 1918 19 149 53 261 149 319 273 l23 50 0 675 c0 700 -2 748 -36 914 -60 287
-203 546 -334 601 -54 22 -161 28 -207 11z m-420 -387 c-85 -82 -196 -154
-277 -180 -100 -33 -223 -34 -335 -4 -152 41 -284 92 -246 95 24 2 48 6 180
29 69 12 139 24 155 27 17 2 55 9 85 14 30 5 73 12 95 16 22 3 58 9 80 14 22
5 60 12 85 15 25 3 79 12 120 20 130 23 130 23 58 -46z m14 -469 c130 -30 268
-141 331 -267 101 -201 66 -421 -93 -584 -157 -160 -388 -201 -585 -102 -173
87 -285 265 -285 453 0 145 49 260 156 368 125 125 297 173 476 132z m-3158
-331 c8 -7 28 -111 41 -209 6 -47 7 -294 1 -322 -3 -13 -8 -48 -11 -78 -3 -30
-15 -94 -26 -142 l-21 -88 -51 6 c-191 21 -451 128 -616 253 -91 68 -116 111
-115 191 3 214 247 379 575 389 40 1 74 3 76 4 4 5 142 1 147 -4z m-714 -765
c160 -107 338 -180 550 -226 l105 -23 1880 0 c1034 0 1898 3 1921 7 22 4 54
12 70 19 75 31 101 43 126 60 14 11 29 19 33 19 10 0 -2 -76 -16 -102 -21 -39
-93 -110 -134 -130 -97 -50 -13 -48 -2005 -45 -1026 2 -1881 6 -1900 10 -166
33 -319 86 -442 154 -143 79 -239 158 -264 218 -12 30 -20 95 -11 95 2 0 41
-25 87 -56z"/>
<path d="M3930 2805 c-250 -64 -343 -366 -172 -556 174 -193 490 -127 576 120
7 22 13 73 12 113 -2 86 -32 161 -90 226 -75 82 -217 125 -326 97z"/>
</g>
</svg>
